# xmcd CD database file generated by Grip 2.95
# 
# Track frame offsets:
#       150
#       18479
#       37393
#       58923
#       74734
#       96242
#       118207
#       138540
#       169979
# 
# Disc length: 2560 seconds
# 
# Revision: 3
# Processed by: cddbd v1.4b41PL1 Copyright (c) Steve Scherf et al.
# Submitted via: Grip 2.95
# 
DISCID=9409fe09
DTITLE=Mean Gene Kelton and The Die Hards - Most Requested Volume 2
DYEAR=1900
DGENRE=
TTITLE0=Crusin' Texas Avenue
TTITLE1=Going Back to Memphis
TTITLE2=Leaving Paradise
TTITLE3=My Blow Up Lover
TTITLE4=Texas City Dyke
TTITLE5=The Avon Man
TTITLE6=Too White to Play the Blues
TTITLE7=Sinkin Deeper into the Blues
TTITLE8=untitled
EXTD=
EXTT0=
EXTT1=
EXTT2=
EXTT3=
EXTT4=
EXTT5=
EXTT6=
EXTT7=
EXTT8=
PLAYORDER=
